<?xml version="1.0" encoding="utf-8"?>
<!-- Generator: Adobe Illustrator 19.0.1, SVG Export Plug-In . SVG Version: 6.00 Build 0)  -->
<svg version="1.1" id="Layer_1" xmlns="http://www.w3.org/2000/svg" xmlns:xlink="http://www.w3.org/1999/xlink" x="0px" y="0px"
	 viewBox="0 0 128 128" style="enable-background:new 0 0 128 128;" xml:space="preserve">
<style type="text/css">
	.st0{fill:#BCBEC0;}
</style>
<g>
	<path class="st0" d="M58,92.3c-6.2,0-12-2.4-16.4-6.8c-4.4-4.4-6.8-10.3-6.8-16.5c0-2.9,2.3-5.2,5.2-5.2s5.2,2.3,5.2,5.2
		c0,3.5,1.3,6.7,3.7,9.1s5.6,3.7,9,3.7l0,0l0,0c2.9,0,5.2,2.3,5.2,5.2C63.2,89.9,60.9,92.3,58,92.3L58,92.3z"/>
	<path class="st0" d="M57.1,108.3c-10.3,0-19.8-3.9-27-11.2c-7.3-7.3-11.2-16.8-11.2-27c0-2.9,2.3-5.2,5.2-5.2s5.2,2.3,5.2,5.2
		c0,7.5,2.9,14.4,8.2,19.7S49.7,98,57.2,98c2.9,0,5.2,2.3,5.2,5.2S60,108.3,57.1,108.3z"/>
	<path class="st0" d="M57.1,125.2c-14.7,0-28.6-5.8-38.9-16.1S2,84.8,2,70.1C2,67.3,4.3,65,7.2,65s5.2,2.3,5.2,5.2
		c0,12,4.6,23.2,13.1,31.7c8.4,8.4,19.7,13.1,31.7,13.1c0,0,0,0,0.1,0c2.9,0,5.2,2.3,5.2,5.2C62.4,122.9,60.1,125.2,57.1,125.2
		C57.2,125.2,57.2,125.2,57.1,125.2z"/>
	<polygon class="st0" points="65.3,30.8 64.8,43.4 56,52.2 42.8,51.8 14.9,23.9 36.7,2.1 	"/>
	<polygon class="st0" points="125.9,91.4 104.1,113.2 76.2,85.3 75.8,72.2 84.7,63.3 97.2,62.8 	"/>
	<polygon class="st0" points="77.2,39 88.9,50.7 62.1,74 53.8,65.7 	"/>
</g>
</svg>
