<?xml version="1.0" encoding="utf-8"?>
<!-- Generator: Adobe Illustrator 19.0.1, SVG Export Plug-In . SVG Version: 6.00 Build 0)  -->
<svg version="1.1" id="Layer_1" xmlns="http://www.w3.org/2000/svg" xmlns:xlink="http://www.w3.org/1999/xlink" x="0px" y="0px"
	 viewBox="0 0 128 128" style="enable-background:new 0 0 128 128;" xml:space="preserve">
<style type="text/css">
	.st0{fill:#BCBEC0;}
</style>
<path class="st0" d="M82.9,102.3c-1.6,0-3.2-0.6-4.4-1.8c-3.8-3.8-8.8-5.8-14.1-5.8s-10.3,2.1-14.1,5.8c-2.4,2.4-6.4,2.4-8.8,0
	C39,98,39,94,41.4,91.6c6.1-6.1,14.3-9.5,23-9.5s16.8,3.4,23,9.5c2.4,2.4,2.4,6.4,0,8.8C86.1,101.6,84.5,102.3,82.9,102.3z"/>
<path class="st0" d="M95.5,88.3c-1.6,0-3.2-0.6-4.4-1.9C84,79.2,74.5,75.3,64.4,75.3c-10,0-19.4,3.9-26.5,11c-2.4,2.4-6.4,2.4-8.8,0
	s-2.4-6.4,0-8.8c9.4-9.4,22-14.7,35.4-14.7c13.5,0,26.1,5.3,35.6,14.9c2.4,2.5,2.4,6.4-0.1,8.8C98.7,87.7,97.1,88.3,95.5,88.3z"/>
<path class="st0" d="M20.9,73.8c-1.6,0-3.2-0.6-4.4-1.8c-2.5-2.4-2.5-6.4,0-8.8c12.8-12.9,29.8-20,47.9-20c18,0,34.9,7,47.7,19.7
	c2.4,2.4,2.5,6.4,0,8.8c-2.4,2.4-6.4,2.5-8.8,0C92.8,61.4,79,55.6,64.4,55.6c-14.8,0-28.7,5.8-39.1,16.3
	C24.1,73.2,22.5,73.8,20.9,73.8z"/>
<path class="st0" d="M121.3,58.2c-1.6,0-3.2-0.6-4.4-1.8c-14-14-32.7-21.8-52.5-21.8s-38.5,7.7-52.5,21.8c-2.4,2.4-6.4,2.4-8.8,0
	s-2.4-6.4,0-8.8c16.4-16.4,38.2-25.4,61.4-25.4s45,9,61.4,25.4c2.4,2.4,2.4,6.4,0,8.8C124.5,57.6,122.9,58.2,121.3,58.2z"/>
</svg>
